<svg width="36" height="34" viewBox="0 0 36 34" fill="none" xmlns="http://www.w3.org/2000/svg">
<path d="M13.9966 6.97681C13.5855 6.89262 13.1743 6.81188 12.765 6.72254C11.8241 6.51638 10.8918 6.28102 10.0214 5.84808C9.03747 5.35845 8.37695 4.58191 7.96068 3.58203C7.52205 2.53062 7.29672 1.42251 7.07827 0.310959C7.05762 0.207878 7.03698 0.104798 6.9785 0C6.91142 0.336728 6.84605 0.675175 6.77381 1.0119C6.58631 1.89152 6.37302 2.76255 6.02728 3.5975C5.55424 4.73481 4.75439 5.54056 3.61568 6.01644C2.55093 6.46141 1.42941 6.68818 0.306181 6.91152C0.202974 6.93214 0.101487 6.95276 0 7.00773C0.45067 7.10222 0.90134 7.18984 1.35029 7.28948C2.25335 7.49221 3.14609 7.72586 3.98206 8.14333C4.95221 8.62953 5.60757 9.39232 6.02384 10.3785C6.47795 11.4574 6.705 12.5981 6.92862 13.7406C6.94582 13.8265 6.96302 13.9107 7.0129 14C7.05934 13.7629 7.10579 13.5258 7.15395 13.2905C7.3552 12.3181 7.57366 11.3491 7.95208 10.4248C8.43199 9.25144 9.25249 8.4268 10.429 7.94748C11.4972 7.51282 12.6187 7.28433 13.742 7.06271C13.828 7.04553 13.914 7.02835 14 7.01117C13.9966 7.00086 13.9966 6.98883 13.9966 6.97681Z" fill="white"/>
<line x1="6" y1="7.25" x2="30" y2="7.25" stroke="white" stroke-width="3.5"/>
<path d="M22.0034 27.0232C22.4145 27.1074 22.8257 27.1881 23.235 27.2775C24.1759 27.4836 25.1082 27.719 25.9786 28.1519C26.9625 28.6416 27.623 29.4181 28.0393 30.418C28.4779 31.4694 28.7033 32.5775 28.9217 33.689C28.9424 33.7921 28.963 33.8952 29.0215 34C29.0886 33.6633 29.1539 33.3248 29.2262 32.9881C29.4137 32.1085 29.627 31.2375 29.9727 30.4025C30.4458 29.2652 31.2456 28.4594 32.3843 27.9836C33.4491 27.5386 34.5706 27.3118 35.6938 27.0885C35.797 27.0679 35.8985 27.0472 36 26.9923C35.5493 26.8978 35.0987 26.8102 34.6497 26.7105C33.7467 26.5078 32.8539 26.2741 32.0179 25.8567C31.0478 25.3705 30.3924 24.6077 29.9762 23.6216C29.5221 22.5426 29.295 21.4019 29.0714 20.2594C29.0542 20.1735 29.037 20.0893 28.9871 20C28.9407 20.2371 28.8942 20.4742 28.8461 20.7095C28.6448 21.6819 28.4263 22.6509 28.0479 23.5752C27.568 24.7486 26.7475 25.5732 25.571 26.0525C24.5028 26.4872 23.3813 26.7157 22.258 26.9373C22.172 26.9545 22.086 26.9717 22 26.9888C22.0034 26.9991 22.0034 27.0112 22.0034 27.0232Z" fill="white"/>
<line x1="30" y1="26.75" x2="6" y2="26.75" stroke="white" stroke-width="3.5"/>
<path d="M24.9966 16.9768C24.5855 16.8926 24.1743 16.8119 23.765 16.7225C22.8241 16.5164 21.8918 16.281 21.0214 15.8481C20.0375 15.3584 19.377 14.5819 18.9607 13.582C18.5221 12.5306 18.2967 11.4225 18.0783 10.311C18.0576 10.2079 18.037 10.1048 17.9785 10C17.9114 10.3367 17.8461 10.6752 17.7738 11.0119C17.5863 11.8915 17.373 12.7625 17.0273 13.5975C16.5542 14.7348 15.7544 15.5406 14.6157 16.0164C13.5509 16.4614 12.4294 16.6882 11.3062 16.9115C11.203 16.9321 11.1015 16.9528 11 17.0077C11.4507 17.1022 11.9013 17.1898 12.3503 17.2895C13.2533 17.4922 14.1461 17.7259 14.9821 18.1433C15.9522 18.6295 16.6076 19.3923 17.0238 20.3785C17.4779 21.4574 17.705 22.5981 17.9286 23.7406C17.9458 23.8265 17.963 23.9107 18.0129 24C18.0593 23.7629 18.1058 23.5258 18.154 23.2905C18.3552 22.3181 18.5737 21.3491 18.9521 20.4248C19.432 19.2514 20.2525 18.4268 21.429 17.9475C22.4972 17.5128 23.6187 17.2843 24.742 17.0627C24.828 17.0455 24.914 17.0283 25 17.0112C24.9966 17.0009 24.9966 16.9888 24.9966 16.9768Z" fill="white"/>
<line x1="6" y1="17.25" x2="30" y2="17.25" stroke="white" stroke-width="3.5"/>
</svg>
