<svg width="35" height="29" viewBox="0 0 35 29" fill="none" xmlns="http://www.w3.org/2000/svg">
<path d="M31.4168 7.21947C31.4381 7.5341 31.4381 7.84873 31.4381 8.16626C31.4381 17.8415 24.2149 29 11.0069 29V28.9942C7.10522 29 3.28458 27.8604 0 25.7116C0.567337 25.7812 1.13752 25.816 1.70912 25.8174C4.94251 25.8204 8.08349 24.7141 10.6273 22.6769C7.55454 22.6175 4.86004 20.5746 3.91875 17.5921C4.99512 17.8038 6.10421 17.7603 7.16067 17.466C3.81068 16.7758 1.40057 13.7745 1.40057 10.2889V10.1961C2.39874 10.7631 3.51635 11.0777 4.65956 11.1125C1.50437 8.96227 0.53179 4.68214 2.43713 1.33575C6.08288 5.91021 11.4619 8.69113 17.2362 8.98546C16.6575 6.44232 17.4481 3.77739 19.3136 1.98966C22.2058 -0.78257 26.7544 -0.640479 29.4731 2.30718C31.0813 1.98386 32.6226 1.38214 34.0331 0.529597C33.4971 2.22454 32.3752 3.6643 30.8765 4.57919C32.2998 4.4081 33.6904 4.01953 35 3.42651C34.036 4.89962 32.8217 6.18279 31.4168 7.21947Z" fill="white"/>
</svg>
